# xmcd
#
# Track frame offsets:
#	182
#	15387
#	29682
#	40240
#	51630
#	66180
#	79622
#	95107
#	111865
#	130772
#	146685
#
# Disc length: 2170 seconds
#
# Revision: 2
# Processed by: cddbd v1.4PL0 Copyright (c) Steve Scherf et al.
# Submitted via: CDmax 1.8
#
DISCID=9b08780b
DTITLE=Steve Kolander
DYEAR=1994
DGENRE=Country
TTITLE0=Can't Undo What's Been Done
TTITLE1=Listen To Your Woman
TTITLE2=Night After Night
TTITLE3=She's So Bad
TTITLE4=Taken For Granted
TTITLE5=Black Dresses
TTITLE6=Drowning Man
TTITLE7=Scoot Over, Move Closer
TTITLE8=Can't Tame Your Love
TTITLE9=Maria
TTITLE10=Maybe
EXTD=
EXTT0=
EXTT1=
EXTT2=
EXTT3=
EXTT4=
EXTT5=
EXTT6=
EXTT7=
EXTT8=
EXTT9=
EXTT10=
PLAYORDER=
